<?xml version="1.0" encoding="UTF-8" standalone="no"?>
<!-- Created with Inkscape (http://www.inkscape.org/) -->

<svg
   xmlns:dc="http://purl.org/dc/elements/1.1/"
   xmlns:cc="http://creativecommons.org/ns#"
   xmlns:rdf="http://www.w3.org/1999/02/22-rdf-syntax-ns#"
   xmlns:svg="http://www.w3.org/2000/svg"
   xmlns="http://www.w3.org/2000/svg"
   xmlns:sodipodi="http://sodipodi.sourceforge.net/DTD/sodipodi-0.dtd"
   xmlns:inkscape="http://www.inkscape.org/namespaces/inkscape"
   width="240.9794"
   height="94.96624"
   id="svg2"
   version="1.1"
   inkscape:version="0.48.4 r9939"
   sodipodi:docname="shellUnit-ink.svg"
   inkscape:export-filename="C:\Users\NeonMan\Pictures\shellUnit-big.png"
   inkscape:export-xdpi="179.11629"
   inkscape:export-ydpi="179.11629">
  <defs
     id="defs4" />
  <sodipodi:namedview
     id="base"
     pagecolor="#ffffff"
     bordercolor="#666666"
     borderopacity="1.0"
     inkscape:pageopacity="0.0"
     inkscape:pageshadow="2"
     inkscape:zoom="0.35"
     inkscape:cx="844.91519"
     inkscape:cy="-310.72052"
     inkscape:document-units="px"
     inkscape:current-layer="layer1"
     showgrid="false"
     fit-margin-top="0"
     fit-margin-left="0"
     fit-margin-right="0"
     fit-margin-bottom="0"
     inkscape:window-width="1366"
     inkscape:window-height="745"
     inkscape:window-x="-8"
     inkscape:window-y="-8"
     inkscape:window-maximized="1" />
  <metadata
     id="metadata7">
    <rdf:RDF>
      <cc:Work
         rdf:about="">
        <dc:format>image/svg+xml</dc:format>
        <dc:type
           rdf:resource="http://purl.org/dc/dcmitype/StillImage" />
        <dc:title></dc:title>
      </cc:Work>
    </rdf:RDF>
  </metadata>
  <g
     inkscape:label="Layer 1"
     inkscape:groupmode="layer"
     id="layer1"
     transform="translate(-3.2291254,-11.731189)">
    <g
       id="g3027"
       transform="translate(-248.57143,-477.14286)">
      <path
         style="fill:#a2d9e6"
         d="m 301.56087,582.49028 c -2.01646,-0.72022 -5.84146,-2.88563 -8.5,-4.81202 -2.65854,-1.92639 -6.38708,-3.79929 -8.28564,-4.162 -3.66295,-0.69978 -8.04807,-4.11513 -8.04807,-6.26822 0,-2.1151 -5.78814,-8.06901 -14.08113,-14.4844 -4.28145,-3.3121 -8.4897,-7.09833 -9.35166,-8.41385 -2.65767,-4.05611 -1.7857,-8.25281 2.74887,-13.23011 2.02751,-2.22547 2.03307,-2.35986 0.29767,-7.18585 -1.66409,-4.62769 -1.66932,-5.1269 -0.0886,-8.45798 1.24386,-2.62125 3.07887,-4.20186 7.07027,-6.09009 3.97884,-1.8823 5.89053,-3.5253 7.30019,-6.27414 1.05038,-2.04823 3.11424,-4.84906 4.58637,-6.22406 2.33878,-2.18447 3.6568,-2.51955 10.44292,-2.65491 6.17328,-0.12314 8.81678,-0.68722 12.88748,-2.75 7.10567,-3.60072 12.95558,-3.48134 19.84163,0.40491 4.67544,2.63865 6.27694,3 13.29607,3 7.46553,0 8.20385,0.19624 11.44489,3.04191 1.9055,1.67305 3.75917,4.3833 4.11925,6.02276 0.48237,2.1962 1.75121,3.53028 4.82025,5.06811 5.32792,2.66969 9.66555,6.73302 9.66555,9.05431 0,2.5002 -2.86726,2.28624 -5.75821,-0.42967 -1.31291,-1.23341 -4.26692,-3.14591 -6.56445,-4.25 -3.15844,-1.51779 -4.78712,-3.22186 -6.67734,-6.98643 -3.19511,-6.3634 -5.56753,-7.52472 -13.93836,-6.82294 -6.13925,0.51469 -6.93779,0.33645 -11.52475,-2.57252 -6.294,-3.99153 -11.16579,-4.11909 -17.41636,-0.45601 -3.95466,2.31758 -5.53657,2.64418 -11.99928,2.47733 -6.44425,-0.16637 -7.75819,0.1029 -9.78267,2.0048 -1.28622,1.20834 -2.33858,2.73285 -2.33858,3.3878 0,2.30305 -4.24693,6.55199 -8.91147,8.91569 -7.12249,3.60924 -7.72335,4.71434 -5.19778,9.55976 2.79518,5.36267 2.70383,6.0842 -1.39075,10.9851 -1.925,2.30407 -3.5,4.7718 -3.5,5.48383 0,1.96121 2.65129,4.56358 12.28977,12.06298 6.40999,4.98743 9.52354,8.20489 11.5,11.88379 2.31905,4.31661 3.23324,5.12909 6.33381,5.6291 1.99297,0.3214 5.91502,2.26643 8.71566,4.32229 9.10179,6.68133 14.12253,6.72509 23.76914,0.20719 3.10103,-2.09527 6.62495,-3.57684 8.96783,-3.77037 3.15851,-0.26091 4.26105,-0.95447 6.07067,-3.81881 4.60633,-7.29107 7.4376,-10 10.45161,-10 3.7243,0 3.67788,1.47585 -0.14765,4.69482 -1.67704,1.41114 -4.11431,4.66766 -5.41615,7.23672 -2.4726,4.87945 -5.67634,7.06846 -10.34509,7.06846 -1.49396,0 -4.98947,1.53084 -7.76778,3.40187 -4.76344,3.20789 -11.07001,5.63428 -14.42182,5.54866 -0.825,-0.0211 -3.14983,-0.62759 -5.16629,-1.34781 z M 276.37938,543.9618 c -3.8712,-4.05855 -5.65222,-6.73691 -5.65222,-8.5 0,-1.41583 0.36321,-2.57424 0.80713,-2.57424 0.44392,0 2.85624,2.8125 5.3607,6.25 8.82134,12.10775 8.58056,14.36062 -0.51561,4.82424 z m 35.59778,4.94861 c -1.60213,-0.68244 -2.25,-1.8007 -2.25,-3.88364 0,-3.14534 1.81406,-4.50322 4.09068,-3.062 0.77513,0.49069 2.53432,0.86735 3.90932,0.83702 2.0305,-0.0448 1.74879,-0.32728 -1.5,-1.50415 -13.09073,-4.7421 -4.778,-18.02391 9.22182,-14.73431 3.33741,0.7842 3.81582,1.27773 4.10082,4.23044 l 0.32264,3.34266 -4.82264,-0.66569 c -3.43191,-0.47372 -4.39008,-0.36983 -3.32264,0.36025 0.825,0.56427 2.20906,1.03283 3.07569,1.04126 2.37417,0.0231 5.92431,4.31097 5.92431,7.15545 0,4.25781 -4.18677,7.18975 -10.7637,7.53767 -3.15496,0.1669 -6.7488,-0.12784 -7.9863,-0.65496 z m 52.06471,-0.48651 c -7.00003,-3.04452 -8.25286,-13.05973 -2.36963,-18.94296 2.69407,-2.69407 3.79047,-3.09338 8.49359,-3.09338 4.33009,0 5.90853,0.47755 7.96546,2.40993 2.98899,2.80801 4.39027,8.42794 2.63023,10.54867 -0.79664,0.95989 -0.87765,1.99901 -0.24411,3.13108 1.39906,2.49998 0.27095,5.43655 -2.49204,6.48704 -3.49753,1.32976 -10.28687,1.06739 -13.9835,-0.54038 z m 12.09776,-6.14112 c 2.6528,-1.01798 0.69064,-2.39522 -3.41247,-2.39522 -3.74666,0 -5.63276,1.03391 -4.30615,2.36052 0.80957,0.80957 5.64271,0.8313 7.71862,0.0347 z m -5.16247,-9.0575 c -0.6875,-0.27741 -1.8125,-0.27741 -2.5,0 -0.6875,0.27741 -0.125,0.50439 1.25,0.50439 1.375,0 1.9375,-0.22698 1.25,-0.50439 z m -37.78845,14.42267 c -0.28731,-0.74871 -0.39619,-7.41359 -0.24197,-14.81084 l 0.28042,-13.44955 4,0 c 3.9008,0 4.0077,0.0931 4.31049,3.75214 0.30954,3.74055 0.32214,3.75029 4.07769,3.14975 3.09865,-0.49549 4.28579,-0.15664 6.6895,1.90942 2.81987,2.42377 2.92232,2.82168 2.92232,11.35026 l 0,8.83843 -4,0 -4,0 -0.5,-7 c -0.44048,-6.16667 -0.73809,-7 -2.5,-7 -1.76191,0 -2.05952,0.83333 -2.5,7 l -0.5,7 -3.75804,0.31084 c -2.48035,0.20517 -3.93564,-0.15198 -4.28041,-1.05045 z m 51.25271,0.62054 c -1.00564,-1.00565 -0.86418,-26.59617 0.15592,-28.20511 0.50491,-0.79638 2.19283,-1.19497 4.23468,-1 l 3.39514,0.32418 0,14.5 0,14.5 -3.53574,0.29759 c -1.94466,0.16368 -3.85716,-0.0238 -4.25,-0.41666 z m 12.74729,-0.62054 c -0.28731,-0.74871 -0.39619,-7.41359 -0.24196,-14.81084 l 0.28041,-13.44955 3.7163,-0.30836 c 4.7402,-0.39331 4.95243,0.38679 4.57273,16.80836 l -0.28903,12.5 -3.75804,0.31084 c -2.48034,0.20517 -3.93564,-0.15198 -4.28041,-1.05045 z m 17.81529,-0.6737 c -4.00449,-2.51544 -4.43617,-4.22168 -4.07001,-16.08669 l 0.29317,-9.5 3,0 3,0 0.29012,9.44588 c 0.15956,5.19523 0.77716,10.03273 1.37244,10.75 1.37838,1.66084 6.46838,1.69749 7.51708,0.0541 0.43872,-0.6875 1.02778,-5.525 1.30902,-10.75 l 0.51134,-9.5 3,0 3,0 0.28438,10.19574 c 0.27862,9.98889 0.22624,10.26082 -2.58201,13.40379 -2.42136,2.70997 -3.7076,3.27045 -8.28438,3.60993 -4.20126,0.31162 -6.14182,-0.0528 -8.64115,-1.62278 z m 67.17771,-0.54123 c -1.95916,-1.95916 -2.45455,-3.4756 -2.45455,-7.51357 0,-2.78247 -0.5409,-5.92515 -1.20201,-6.98375 -0.89757,-1.43724 -0.92054,-2.51021 -0.0907,-4.23643 0.61123,-1.27144 1.37457,-3.12935 1.69632,-4.12868 0.89236,-2.77165 5.99582,-1.89188 6.42115,1.10693 0.22928,1.61661 1.18492,2.46198 3.25,2.875 4.0075,0.8015 3.95838,3.87841 -0.0748,4.68504 -2.77842,0.55568 -3,0.91944 -3,4.925 0,4.63007 1.30836,6.725 4.2,6.725 2.25541,0 2.43143,3.54372 0.21821,4.39301 -3.21466,1.23358 -6.57518,0.54093 -8.96366,-1.84755 z m -41.45455,-8.52818 0,-10.10943 4.25,0.12303 c 2.3375,0.0677 5.88684,-0.18726 7.88743,-0.5665 2.94701,-0.55865 4.0384,-0.28855 5.75,1.42305 1.81871,1.81871 2.11257,3.29492 2.11257,10.61257 l 0,8.5 -3,0 c -2.98903,0 -3,-0.0212 -3,-5.80887 0,-6.42185 -1.60701,-9.60366 -4.5661,-9.04068 -1.63179,0.31046 -2.01201,1.46002 -2.4339,7.35874 l -0.5,6.99081 -3.25,0.31336 -3.25,0.31336 0,-10.10944 z m 26.42548,8.64913 c -0.28146,-0.73347 -0.37983,-5.12097 -0.21861,-9.75 l 0.29313,-8.41641 3.25,-0.31336 3.25,-0.31336 0,10.06336 0,10.06336 -3.03138,0 c -1.66727,0 -3.26168,-0.60012 -3.54314,-1.33359 z M 288.23747,536.9039 c -8.30934,-13.16286 -10.92385,-20.01634 -7.63595,-20.01634 1.50047,0 11.76754,22.69144 10.73448,23.72449 -0.25546,0.25546 -1.64979,-1.41321 -3.09853,-3.70815 z m 10.13121,-12.26634 c -3.08249,-15.45335 -3.17366,-17.06347 -1.06531,-18.81325 2.49566,-2.07121 3.13001,0.0627 3.84716,12.9412 0.35595,6.39213 0.89586,13.30955 1.1998,15.37205 0.30641,2.07923 0.1313,3.75 -0.39302,3.75 -0.52011,0 -2.13499,-5.9625 -3.58863,-13.25 z m 168.69431,-1.31722 c -0.82371,-2.14656 0.94836,-3.67075 3.79883,-3.26745 1.56042,0.22078 2.47408,1.10034 2.68489,2.58467 0.27244,1.91831 -0.13758,2.25 -2.78138,2.25 -1.89301,0 -3.33521,-0.61049 -3.70234,-1.56722 z M 315.00527,513.3933 c 0.63532,-8.40031 0.88485,-9.04092 3.17876,-8.16066 2.98545,1.14562 1.33097,14.87951 -1.86668,15.49532 -1.7661,0.34013 -1.85496,-0.15657 -1.31208,-7.33466 z"
         id="path3020"
         inkscape:connector-curvature="0" />
      <path
         style="fill:#4b4b4b"
         d="m 312.97716,547.91076 c -2.23512,-0.95241 -3.0216,-3.42829 -1.40615,-4.42669 0.46411,-0.28684 2.5481,-0.051 4.63108,0.52418 3.07868,0.85006 4.07657,0.75638 5.3337,-0.50075 1.70734,-1.70734 2.12485,-1.41053 -5.12545,-3.64359 -10.98098,-3.38208 -3.30162,-14.58516 8.31682,-12.13305 2.55754,0.53978 3.5,1.2662 3.5,2.6977 0,1.65511 -0.69806,1.959 -4.5,1.959 -5.97963,0 -6.10075,1.64365 -0.25793,3.5 3.60165,1.14429 4.95133,2.15813 5.69153,4.27533 0.82903,2.37125 0.58987,3.15574 -1.64262,5.38823 -2.88697,2.88697 -10.43061,4.11112 -14.54098,2.35964 z m 52.00856,-0.51047 c -4.69967,-2.04284 -6.96493,-7.2117 -5.42016,-12.36768 1.86713,-6.23193 8.39229,-9.17991 15.1616,-6.8498 2.66228,0.91639 3.76982,2.03957 4.62732,4.69265 1.71297,5.29987 0.98141,6.0121 -6.17529,6.0121 -6.59314,0 -8.68653,1.19407 -6.29176,3.58884 1.66184,1.66184 5.12709,2.02255 9.58973,0.99823 2.87333,-0.65952 3.25,-0.50211 3.25,1.35823 0,3.85886 -8.40342,5.32243 -14.74144,2.56743 z m 7.74144,-12.54705 c 1.29833,-0.86874 1.23902,-1.2028 -0.44113,-2.48468 -2.405,-1.83491 -2.71274,-1.83491 -5.11774,0 -1.68015,1.28188 -1.73946,1.61594 -0.44113,2.48468 0.825,0.55203 2.175,1.00369 3,1.00369 0.825,0 2.175,-0.45166 3,-1.00369 z m -38.28742,12.41356 c -1.00852,-1.00851 -0.8593,-24.59945 0.16582,-26.21673 0.46628,-0.73562 1.92189,-1.18562 3.23469,-1 1.91935,0.27138 2.44985,1.02309 2.70821,3.83749 0.4086,4.45104 1.25274,5.27808 4.254,4.16785 4.01806,-1.48638 7.72748,0.46162 8.897,4.67226 1.2315,4.43378 1.3139,12.16005 0.1493,13.99738 -0.46628,0.73562 -1.92189,1.18562 -3.23469,1 -2.19886,-0.3109 -2.4263,-0.88898 -2.88691,-7.33749 -0.5,-7 -0.5,-7 -3.5,-7 -3,0 -3,0 -3.5,7 -0.47112,6.59561 -0.64659,7.01709 -3.03742,7.29591 -1.39559,0.16275 -2.85809,-0.0248 -3.25,-0.41667 z m 51.50875,-13.06005 0.27867,-13.81919 2.5,0 2.5,0 0,13.5 0,13.5 -2.77867,0.31919 -2.77867,0.31919 0.27867,-13.81919 z m 12.44534,13.01414 c -0.36667,-0.36666 -0.66667,-6.45579 -0.66667,-13.53138 0,-10.98787 0.23867,-12.9563 1.63592,-13.49248 0.89976,-0.34527 2.36226,-0.17073 3.25,0.38788 1.29226,0.81313 1.67208,3.18764 1.90495,11.90914 0.35578,13.32415 -0.0668,15.39351 -3.14326,15.39351 -1.27285,0 -2.61428,-0.3 -2.98094,-0.66667 z"
         id="path3018"
         inkscape:connector-curvature="0" />
    </g>
  </g>
</svg>
