<?xml version="1.0" encoding="UTF-8" standalone="no"?>
<!-- Created with Inkscape (http://www.inkscape.org/) -->

<svg
   xmlns:dc="http://purl.org/dc/elements/1.1/"
   xmlns:cc="http://creativecommons.org/ns#"
   xmlns:rdf="http://www.w3.org/1999/02/22-rdf-syntax-ns#"
   xmlns:svg="http://www.w3.org/2000/svg"
   xmlns="http://www.w3.org/2000/svg"
   xmlns:sodipodi="http://sodipodi.sourceforge.net/DTD/sodipodi-0.dtd"
   xmlns:inkscape="http://www.inkscape.org/namespaces/inkscape"
   width="109.92663"
   height="94.96624"
   id="svg2"
   version="1.1"
   inkscape:version="0.48.4 r9939"
   sodipodi:docname="shellUnit-ink.svg"
   inkscape:export-filename="C:\Users\NeonMan\Pictures\shellUnit-big.png"
   inkscape:export-xdpi="179.11629"
   inkscape:export-ydpi="179.11629">
  <defs
     id="defs4" />
  <sodipodi:namedview
     id="base"
     pagecolor="#ffffff"
     bordercolor="#666666"
     borderopacity="1.0"
     inkscape:pageopacity="0.0"
     inkscape:pageshadow="2"
     inkscape:zoom="4.0179722"
     inkscape:cx="124.32711"
     inkscape:cy="50.921207"
     inkscape:document-units="px"
     inkscape:current-layer="layer1"
     showgrid="false"
     fit-margin-top="0"
     fit-margin-left="0"
     fit-margin-right="0"
     fit-margin-bottom="0"
     inkscape:window-width="1366"
     inkscape:window-height="745"
     inkscape:window-x="-8"
     inkscape:window-y="-8"
     inkscape:window-maximized="1" />
  <metadata
     id="metadata7">
    <rdf:RDF>
      <cc:Work
         rdf:about="">
        <dc:format>image/svg+xml</dc:format>
        <dc:type
           rdf:resource="http://purl.org/dc/dcmitype/StillImage" />
        <dc:title></dc:title>
      </cc:Work>
    </rdf:RDF>
  </metadata>
  <g
     inkscape:label="Layer 1"
     inkscape:groupmode="layer"
     id="layer1"
     transform="translate(-3.2291254,-11.731189)">
    <path
       inkscape:connector-curvature="0"
       id="path3020"
       d="m 52.98944,105.34742 c -2.01646,-0.72022 -5.84146,-2.88563 -8.5,-4.81202 -2.65854,-1.92639 -6.38708,-3.79929 -8.28564,-4.162 -3.66295,-0.69978 -8.04807,-4.11513 -8.04807,-6.26822 0,-2.1151 -5.78814,-8.06901 -14.08113,-14.4844 C 9.79315,72.30868 5.5849,68.52245 4.72294,67.20693 2.06527,63.15082 2.93724,58.95412 7.47181,53.97682 9.49932,51.75135 9.50488,51.61696 7.76948,46.79097 6.10539,42.16328 6.10016,41.66407 7.68088,38.33299 c 1.24386,-2.62125 3.07887,-4.20186 7.07027,-6.09009 3.97884,-1.8823 5.89053,-3.5253 7.30019,-6.27414 1.05038,-2.04823 3.11424,-4.84906 4.58637,-6.22406 2.33878,-2.18447 3.6568,-2.51955 10.44292,-2.65491 6.17328,-0.12314 8.81678,-0.68722 12.88748,-2.75 7.10567,-3.60072 12.95558,-3.48134 19.84163,0.40491 4.67544,2.63865 6.27694,3 13.29607,3 7.46553,0 8.20385,0.19624 11.44489,3.04191 1.9055,1.67305 3.75917,4.3833 4.11925,6.02276 0.48237,2.1962 1.75121,3.53028 4.82025,5.06811 5.32792,2.66969 9.66555,6.73302 9.66555,9.05431 0,2.5002 -2.86726,2.28624 -5.75821,-0.42967 -1.31291,-1.23341 -4.26692,-3.14591 -6.56445,-4.25 -3.15844,-1.51779 -4.78712,-3.22186 -6.67734,-6.98643 -3.19511,-6.3634 -5.56753,-7.52472 -13.93836,-6.82294 -6.13925,0.51469 -6.93779,0.33645 -11.52475,-2.57252 -6.294,-3.99153 -11.16579,-4.11909 -17.41636,-0.45601 -3.95466,2.31758 -5.53657,2.64418 -11.99928,2.47733 -6.44425,-0.16637 -7.75819,0.1029 -9.78267,2.0048 -1.28622,1.20834 -2.33858,2.73285 -2.33858,3.3878 0,2.30305 -4.24693,6.55199 -8.91147,8.91569 -7.12249,3.60924 -7.72335,4.71434 -5.19778,9.55976 2.79518,5.36267 2.70383,6.0842 -1.39075,10.9851 -1.925,2.30407 -3.5,4.7718 -3.5,5.48383 0,1.96121 2.65129,4.56358 12.28977,12.06298 6.40999,4.98743 9.52354,8.20489 11.5,11.88379 2.31905,4.31661 3.23324,5.12909 6.33381,5.6291 1.99297,0.3214 5.91502,2.26643 8.71566,4.32229 9.10179,6.68133 14.12253,6.72509 23.76914,0.20719 3.10103,-2.09527 6.62495,-3.57684 8.96783,-3.77037 3.15851,-0.26091 4.26105,-0.95447 6.07067,-3.81881 4.60633,-7.29107 7.4376,-10 10.45161,-10 3.7243,0 3.67788,1.47585 -0.14765,4.69482 -1.67704,1.41114 -4.11431,4.66766 -5.41615,7.23672 -2.4726,4.87945 -5.67634,7.06846 -10.34509,7.06846 -1.49396,0 -4.98947,1.53084 -7.76778,3.40187 -4.76344,3.20789 -11.07001,5.63428 -14.42182,5.54866 -0.825,-0.0211 -3.14983,-0.62759 -5.16629,-1.34781 z M 27.80795,66.81894 c -3.8712,-4.05855 -5.65222,-6.73691 -5.65222,-8.5 0,-1.41583 0.36321,-2.57424 0.80713,-2.57424 0.44392,0 2.85624,2.8125 5.3607,6.25 8.82134,12.10775 8.58056,14.36062 -0.51561,4.82424 z m 35.59778,4.94861 c -1.60213,-0.68244 -2.25,-1.8007 -2.25,-3.88364 0,-3.14534 1.81406,-4.50322 4.09068,-3.062 0.77513,0.49069 2.53432,0.86735 3.90932,0.83702 2.0305,-0.0448 1.74879,-0.32728 -1.5,-1.50415 -13.09073,-4.7421 -4.778,-18.02391 9.22182,-14.73431 3.33741,0.7842 3.81582,1.27773 4.10082,4.23044 l 0.32264,3.34266 -4.82264,-0.66569 c -3.43191,-0.47372 -4.39008,-0.36983 -3.32264,0.36025 0.825,0.56427 2.20906,1.03283 3.07569,1.04126 2.37417,0.0231 5.92431,4.31097 5.92431,7.15545 0,4.25781 -4.18677,7.18975 -10.7637,7.53767 -3.15496,0.1669 -6.7488,-0.12784 -7.9863,-0.65496 z M 84.61728,70.50509 C 84.32997,69.75638 84.22109,63.0915 84.37531,55.69425 l 0.28042,-13.44955 4,0 c 3.9008,0 4.0077,0.0931 4.31049,3.75214 0.30954,3.74055 0.32214,3.75029 4.07769,3.14975 3.09865,-0.49549 4.28579,-0.15664 6.6895,1.90942 2.81987,2.42377 2.92232,2.82168 2.92232,11.35026 l 0,8.83843 -4,0 -4,0 -0.5,-7 c -0.44048,-6.16667 -0.73809,-7 -2.5,-7 -1.76191,0 -2.05952,0.83333 -2.5,7 l -0.5,7 -3.75804,0.31084 c -2.48035,0.20517 -3.93564,-0.15198 -4.28041,-1.05045 z M 39.66604,59.76104 C 31.3567,46.59818 28.74219,39.7447 32.03009,39.7447 c 1.50047,0 11.76754,22.69144 10.73448,23.72449 -0.25546,0.25546 -1.64979,-1.41321 -3.09853,-3.70815 z M 49.79725,47.4947 C 46.71476,32.04135 46.62359,30.43123 48.73194,28.68145 c 2.49566,-2.07121 3.13001,0.0627 3.84716,12.9412 0.35595,6.39213 0.89586,13.30955 1.1998,15.37205 0.30641,2.07923 0.1313,3.75 -0.39302,3.75 -0.52011,0 -2.13499,-5.9625 -3.58863,-13.25 z M 66.43384,36.25044 c 0.63532,-8.40031 0.88485,-9.04092 3.17876,-8.16066 2.98545,1.14562 1.33097,14.87951 -1.86668,15.49532 -1.7661,0.34013 -1.85496,-0.15657 -1.31208,-7.33466 z"
       style="fill:#a2d9e6"
       sodipodi:nodetypes="csssssssssssssssssssssssssssssssssssssssssssscccsssssssssssscsssssssscssssscccssscssssssssssssssss" />
    <path
       inkscape:connector-curvature="0"
       id="path3018"
       d="m 64.40573,70.7679 c -2.23512,-0.95241 -3.0216,-3.42829 -1.40615,-4.42669 0.46411,-0.28684 2.5481,-0.051 4.63108,0.52418 3.07868,0.85006 4.07657,0.75638 5.3337,-0.50075 1.70734,-1.70734 2.12485,-1.41053 -5.12545,-3.64359 -10.98098,-3.38208 -3.30162,-14.58516 8.31682,-12.13305 2.55754,0.53978 3.5,1.2662 3.5,2.6977 0,1.65511 -0.69806,1.959 -4.5,1.959 -5.97963,0 -6.10075,1.64365 -0.25793,3.5 3.60165,1.14429 4.95133,2.15813 5.69153,4.27533 0.82903,2.37125 0.58987,3.15574 -1.64262,5.38823 -2.88697,2.88697 -10.43061,4.11112 -14.54098,2.35964 z m 21.46258,-0.64396 c -1.00852,-1.00851 -0.8593,-24.59945 0.16582,-26.21673 0.46628,-0.73562 1.92189,-1.18562 3.23469,-1 1.91935,0.27138 2.44985,1.02309 2.70821,3.83749 0.4086,4.45104 1.25274,5.27808 4.254,4.16785 4.01806,-1.48638 7.72748,0.46162 8.897,4.67226 1.2315,4.43378 1.3139,12.16005 0.1493,13.99738 -0.46628,0.73562 -1.92189,1.18562 -3.23469,1 -2.19886,-0.3109 -2.4263,-0.88898 -2.88691,-7.33749 -0.5,-7 -0.5,-7 -3.5,-7 -3,0 -3,0 -3.5,7 -0.47112,6.59561 -0.64659,7.01709 -3.03742,7.29591 -1.39559,0.16275 -2.85809,-0.0248 -3.25,-0.41667 z"
       style="fill:#4b4b4b"
       sodipodi:nodetypes="sscssssssssscsssssssssssc" />
  </g>
</svg>
